<?xml version="1.0" encoding="utf-8"?>
<!-- Generator: Adobe Illustrator 25.2.1, SVG Export Plug-In . SVG Version: 6.00 Build 0)  -->
<svg version="1.1" id="Capa_1" xmlns="http://www.w3.org/2000/svg" xmlns:xlink="http://www.w3.org/1999/xlink" x="0px" y="0px"
	 viewBox="0 0 56.7 56.7" style="enable-background:new 0 0 56.7 56.7;" xml:space="preserve">
<style type="text/css">
	.st0{fill:#FBF9F8;}
</style>
<g>
	<g>
		<path class="st0" d="M19.2,20.4c2.6-0.3,5.3-0.4,7.9-0.4c3.7,0,7.4,0.8,11.1,0.3c1.3-0.1,2.5-1,2.5-2.5c0-1.2-1.1-2.6-2.5-2.5
			c-3.7,0.4-7.4-0.3-11.1-0.3c-2.6,0-5.3,0-7.9,0.4c-1.3,0.2-2.5,1-2.5,2.5C16.7,19.1,17.9,20.5,19.2,20.4L19.2,20.4z"/>
	</g>
</g>
<g>
	<g>
		<path class="st0" d="M20.9,30c-0.6,0.1,0.4,0,0.5,0c0.3,0,0.7,0,1,0c0.8,0.1,1.6,0.1,2.4,0.2c0.5,0.1,1.3,0.2,2,0.3
			c0.8,0.1,1.7,0.2,2.5,0.3c3.7,0.3,7.5-0.2,11.2,0c1.3,0.1,2.5-1.2,2.5-2.5c0-1.4-1.1-2.4-2.5-2.5c-3.8-0.2-7.6,0.3-11.4,0
			c-0.3,0-0.6-0.1-0.9-0.1c-0.1,0-0.6-0.1-0.2,0c-0.2,0-0.4-0.1-0.5-0.1c-1-0.1-2-0.3-3-0.4c-1.7-0.2-3.3-0.3-5-0.1
			c-1.3,0.2-2.1,1.9-1.7,3.1C18.3,29.7,19.6,30.1,20.9,30L20.9,30z"/>
	</g>
</g>
<g>
	<g>
		<path class="st0" d="M20.1,35.8c0,0-0.1,0-0.1,0c0.8,0.2,1.6,0.4,2.4,0.6c0,0-0.1-0.1-0.1-0.1c0.2,0.6,0.5,1.2,0.7,1.8
			c0,0,0-0.1,0-0.1c-0.4,0.7-0.8,1.4-1.2,2.2c0.1,0,0.1-0.1,0.2-0.1c-0.4,0.1-0.8,0.2-1.3,0.3c1.6,0,3.3,0.3,5,0.3
			c1.6,0,3.3,0,4.9-0.1c3.4-0.1,6.8-0.2,10.2-0.3c3.2-0.1,3.2-5.1,0-5c-3.6,0.1-7.2,0.2-10.7,0.3c-1.7,0-3.4,0.1-5.1,0
			c-0.9,0-1.8-0.1-2.7-0.2c-1.1-0.1-1.9-0.2-2.9,0.3C18.5,36.3,18,37.1,18,38c0,0.8,0.3,1.5,0.8,2c0.6,0.6,1.6,1,2.4,0.6
			c0,0,0.1,0,0.1,0c1.2-0.5,2.1-1.7,1.7-3.1C22.8,36.4,21.3,35.3,20.1,35.8L20.1,35.8z"/>
	</g>
</g>
</svg>
