<?xml version="1.0" encoding="utf-8"?>
<!-- Generator: Adobe Illustrator 25.2.1, SVG Export Plug-In . SVG Version: 6.00 Build 0)  -->
<svg version="1.1" id="Capa_1" xmlns="http://www.w3.org/2000/svg" xmlns:xlink="http://www.w3.org/1999/xlink" x="0px" y="0px"
	 viewBox="0 0 56.7 56.7" style="enable-background:new 0 0 56.7 56.7;" xml:space="preserve">
<style type="text/css">
	.st0{fill:#FBF9F8;}
</style>
<g>
	<g>
		<path class="st0" d="M34.1,17.1c-4.4-2.6-10-1.4-13.5,2.1c-3.4,3.5-5.1,9.3-3.4,14c0.8,2.4,2.3,4.4,4.5,5.7
			c2.2,1.4,4.8,1.8,7.4,2.1c4.8,0.5,9.6-1.9,11.7-6.4c2.3-4.9,0.9-10.8-3.2-14.4c-1-0.9-2.5-1-3.5,0c-0.9,0.9-1,2.6,0,3.5
			c1.1,1,2,2.2,2.4,3.6c0.4,1.4,0.5,2.6,0.2,3.9C36,33.7,34,35.7,31.3,36c-1.8,0.2-3.9-0.2-5.6-0.7c-1.4-0.5-2.5-1.3-3.2-2.5
			c-1.6-2.8-0.9-6.4,0.8-9c1.8-2.7,5.4-4.1,8.3-2.4C34.4,23,36.9,18.7,34.1,17.1L34.1,17.1z"/>
	</g>
</g>
</svg>
