<?xml version="1.0" encoding="utf-8"?>
<!-- Generator: Adobe Illustrator 25.2.1, SVG Export Plug-In . SVG Version: 6.00 Build 0)  -->
<svg version="1.1" xmlns="http://www.w3.org/2000/svg" xmlns:xlink="http://www.w3.org/1999/xlink" x="0px" y="0px"
	 viewBox="0 0 56.7 56.7" style="enable-background:new 0 0 56.7 56.7;" xml:space="preserve">
<style type="text/css">
	.st0{display:none;}
	.st1{display:inline;}
	.st2{fill:#2FAC66;}
</style>
<g id="Capa_1" class="st0">
	<path class="st1" d="M19,28h3.8c0.3,0,0.5,0.2,0.5,0.5v5.4c0,4.4-2.4,8.3-8,8.3c-5.8,0-8.1-3.9-8.1-8.4V15.9c0-0.3,0.2-0.5,0.5-0.5
		h4.1c0.3,0,0.5,0.2,0.5,0.5v0c0,2.8,2.2,5.1,4.8,5.1h5.6c0.3,0,0.5,0.2,0.5,0.5v2.8c0,0.3-0.2,0.5-0.5,0.5h-9.9
		c-0.3,0-0.5,0.2-0.5,0.5v8c0,2.6,0.9,4.1,3,4.1c2.1,0,3.1-1.5,3.1-4.1v-4.9C18.5,28.3,18.7,28,19,28z"/>
	<path class="st1" d="M34.6,31.9c0.3,0,0.5,0.2,0.5,0.5v0.9c0,2.6,0.9,4.1,3,4.1c2.6,0,3.1-1.5,3.1-4.1l0,0c0-0.3,0.3-0.6,0.6-0.6
		h3.7c0.3,0,0.6,0.3,0.6,0.6v0.5c0,4.4-1.8,8.3-8,8.3c-5.8,0-8.1-3.9-8.1-8.4v-1.5c0-0.3,0.3-0.5,0.5-0.5L34.6,31.9z"/>
	<path class="st1" d="M30.5,29.4c-0.3,0-0.5-0.2-0.5-0.5l0-2.1c0-4.5,2.3-8.4,8.1-8.4c5.6,0,8,3.9,8,8.3v0.5c0,0.3-0.2,0.5-0.5,0.5
		h-3.8c-0.3,0-0.5-0.2-0.5-0.5l0,0c0-2.6-0.5-4.1-3.1-4.1c-2.1,0-3,1.5-3,4.1l0,1.6c0,0.3-0.2,0.5-0.5,0.5L30.5,29.4z"/>
	<ellipse class="st1" cx="26.7" cy="39.5" rx="2.9" ry="2.7"/>
	<ellipse class="st1" cx="49.5" cy="39.8" rx="2.9" ry="2.7"/>
</g>
<g id="Capa_2">
	<g>
		<g>
			<path class="st2" d="M20.2,20.6c-1.3,0.3-2.6,0.9-3.9,1.3c-1,0.2-1.7-0.2-2.3-1c-0.5-0.6-0.5-0.9-0.7-1.8
				c-0.3-1.2-0.6-2.3-1.1-3.4c-0.4-1-1.8-1.4-2.8-1.1c-1.1,0.3-1.8,1.3-1.8,2.4C7.2,21,7,25.1,7.1,29.2c0.1,2.8-0.2,6,0.7,8.7
				c1.2,3.4,4.2,5.3,7.8,5.3c2.2,0,4.4-0.8,5.8-2.5c2.7-3.2,2.2-7.9,1.5-11.7c-0.3-1.3-1.8-2.1-3.1-1.7c-1.4,0.4-2,1.7-1.7,3.1
				c0.3,1.6,0.5,3.2,0.4,4.9c0,0.4,0,0-0.1,0.5c-0.1,0.3-0.1,0.5-0.2,0.8c0,0.1-0.1,0.3-0.1,0.4c0,0,0.2-0.4,0.1-0.1
				c-0.1,0.2-0.2,0.4-0.4,0.6c-0.2,0.3,0.3-0.3,0.1-0.1c-0.1,0.1-0.1,0.1-0.2,0.2c-0.1,0.1-0.7,0.5-0.1,0.1
				c-0.1,0.1-0.3,0.2-0.4,0.3c-0.4,0.3-0.2,0.1-0.1,0.1c-0.3,0.1-0.6,0.2-0.9,0.3c-0.5,0.1,0.5,0,0.1,0c-0.2,0-0.3,0-0.5,0
				c-0.4,0-0.8,0-1.1-0.1c-0.1,0-0.8-0.2-0.6-0.1c-0.1-0.1-0.8-0.5-0.5-0.3c-0.1-0.1-0.6-0.5-0.4-0.4c0.1,0.1-0.2-0.4-0.3-0.5
				c-0.1-0.1-0.1-0.3-0.2-0.4c0,0,0.1,0.4,0.1,0.1c-0.1-0.3-0.2-0.6-0.3-0.9c-0.1-0.2-0.1-0.4-0.1-0.7c-0.1-0.3,0,0.2,0,0.2
				c0-0.1,0-0.2,0-0.3c0-0.5,0-1-0.1-1.6c0-1.5-0.1-3.1-0.1-4.6c-0.1-3.9,0.1-7.9,0.4-11.8c-1.6,0.4-3.1,0.8-4.7,1.3
				c0.4,1,0.5,2.1,0.8,3.1c0.5,1.5,1.4,2.8,2.6,3.8c1.6,1.3,3.3,2,5.4,1.7c1.7-0.2,3.2-1.1,4.9-1.5C24.6,24.7,23.3,19.9,20.2,20.6
				L20.2,20.6z"/>
		</g>
	</g>
	<g>
		<g>
			<path class="st2" d="M35.7,26.9c0-0.6,0-1.3,0.1-1.9c0-0.3-0.1,0.4,0,0.3c0-0.1,0-0.2,0-0.3c0-0.1,0.1-0.3,0.1-0.4
				c0-0.1,0.1-0.3,0.1-0.4c0.1-0.2-0.1,0.3-0.1,0.3c0.1-0.1,0.1-0.2,0.1-0.2c0.1-0.1,0.2-0.3,0.2-0.4c0.1-0.2-0.2,0.2-0.2,0.2
				c0.1,0,0.1-0.1,0.1-0.2c0.1-0.1,0.2-0.2,0.4-0.4c0.1-0.1,0.3-0.2,0,0c-0.3,0.2,0,0,0.1,0c0.2-0.1,0.4-0.2,0.6-0.4
				c0.1-0.1,0.2-0.1,0.3-0.2c0,0,0.1,0,0.1-0.1c0.3-0.2-0.3,0.1-0.3,0.1c0.3-0.2,1-0.3,1.4-0.4c0.1,0,0.3,0,0.4-0.1
				c-0.1,0.1-0.7,0.1-0.2,0c0.2,0,0.5,0,0.7,0c0.1,0,0.2,0,0.4,0c0.1,0,0.5,0.1,0,0c-0.5-0.1-0.1,0,0.1,0c0.1,0,0.2,0.1,0.3,0.1
				c0.1,0,0.2,0.1,0.3,0.1c0.3,0.1-0.6-0.3-0.2-0.1c0.2,0.1,0.4,0.2,0.6,0.3c-0.6-0.4-0.3-0.3-0.1-0.1c0.2,0.2,0.3,0.5-0.1-0.1
				c0.1,0.1,0.1,0.2,0.2,0.3c0.1,0.1,0.3,0.6,0.1,0.1c-0.2-0.4,0,0,0,0.1c0,0.1,0.1,0.3,0.1,0.5c0,0.1,0,0.1,0,0.2
				c0.1,0.3,0-0.6,0-0.3c0,0.2,0,0.4,0,0.6c0,1.3,1.1,2.6,2.5,2.5c1.3-0.1,2.5-1.1,2.5-2.5c0-1.8-0.5-3.5-1.8-4.8
				c-1.1-1.2-2.6-1.7-4.2-1.9c-3-0.3-6.4,1.1-8.2,3.5c-1.2,1.6-1.4,3.8-1.4,5.7c0,1.3,1.2,2.6,2.5,2.5
				C34.6,29.3,35.7,28.3,35.7,26.9L35.7,26.9z"/>
		</g>
	</g>
	<g>
		<g>
			<path class="st2" d="M41.6,33.6c0,0.5,0,1.1,0,1.6c0,0.4,0.1-0.6,0-0.2c0,0.1,0,0.2-0.1,0.4c-0.1,0.3-0.1,0.5-0.2,0.7
				c0,0.1,0,0.1-0.1,0.2c0,0,0.3-0.5,0.1-0.3c-0.1,0.1-0.1,0.2-0.2,0.3c-0.1,0.1-0.1,0.2-0.2,0.3c-0.3,0.4,0.3-0.4,0.1-0.1
				c-0.1,0.1-0.2,0.2-0.3,0.3c-0.1,0.1-0.4,0.3-0.1,0.1c0.4-0.3,0,0-0.1,0.1c-0.1,0.1-0.3,0.1-0.4,0.2c-0.4,0.2,0.5-0.2,0.1,0
				c-0.1,0-0.3,0.1-0.4,0.1c-0.1,0-0.3,0.1-0.4,0.1c-0.4,0.1,0.5,0-0.1,0c-0.4,0-0.7,0-1.1,0c-0.2,0-0.3,0-0.5,0c0,0,0.6,0.1,0.3,0
				c-0.1,0-0.2,0-0.3-0.1c-0.3-0.1-0.5-0.2-0.8-0.2c-0.2-0.1,0.3,0.1,0.3,0.1c0,0-0.1-0.1-0.2-0.1c-0.1-0.1-0.3-0.1-0.4-0.2
				c-0.1-0.1-0.5-0.4-0.2-0.1c0.3,0.3,0,0-0.1-0.1c-0.1-0.1-0.2-0.2-0.3-0.3c0,0-0.1-0.1-0.1-0.1c-0.2-0.2,0.1,0.1,0.1,0.2
				c-0.1-0.3-0.3-0.5-0.5-0.8c-0.1-0.1-0.3-0.6-0.1-0.2c0.2,0.4,0-0.1-0.1-0.2c-0.1-0.3-0.2-0.7-0.2-1c-0.1-0.3,0,0.3,0,0.3
				c0-0.1,0-0.2,0-0.3c0-0.2,0-0.4,0-0.6c0-1.3-1.1-2.6-2.5-2.5c-1.3,0.1-2.5,1.1-2.5,2.5c0,3.7,2,7.1,5.7,8.3
				c3.4,1.1,7.8,0,9.5-3.3c0.8-1.5,1.1-3.3,1-5c-0.1-1.3-1.1-2.6-2.5-2.5C42.8,31.2,41.5,32.2,41.6,33.6L41.6,33.6z"/>
		</g>
	</g>
	<g>
		<g>
			<path class="st2" d="M49.1,42.1c0.2,0.1,0.5,0.1,0.7,0.1c0,0,0,0,0,0c0.2,0,0.4-0.1,0.7-0.1c0,0,0,0,0,0c0,0,0,0,0,0c0,0,0,0,0,0
				c0,0,0,0,0,0c0,0,0,0,0,0c0,0,0.6-0.2,0.6-0.3c0,0,0,0,0,0c0,0,0.5-0.4,0.5-0.4c0,0,0,0,0,0c0,0,0,0,0,0c0,0,0,0,0,0
				c0.2-0.2,0.3-0.3,0.4-0.5c0,0,0,0,0,0c0.1-0.2,0.2-0.4,0.3-0.6c0,0,0,0,0,0c0,0,0,0,0,0c0,0,0,0,0,0c0,0,0,0,0,0
				c0-0.2,0.1-0.4,0.1-0.7c0,0,0,0,0,0c0,0,0,0,0,0c0,0-0.1-0.7-0.1-0.7c0,0,0,0,0,0c-0.1-0.5-0.4-0.8-0.7-1.1c0,0,0,0,0,0
				c-0.2-0.1-0.3-0.3-0.5-0.4c0,0,0,0,0,0c0,0,0,0,0,0c0,0,0,0,0,0c-0.2-0.1-0.4-0.2-0.6-0.3c0,0,0,0,0,0c-0.1,0-0.2,0-0.3,0
				c-0.1,0-0.2,0-0.3,0c0,0,0,0,0,0c0,0,0,0,0,0c0,0,0,0,0,0c-0.1,0-0.4,0-0.3,0c0,0-0.2,0-0.3,0c0,0,0,0,0,0
				c-0.2,0.1-0.4,0.2-0.6,0.3c0,0,0,0,0,0c0,0,0,0,0,0c0,0-0.5,0.4-0.5,0.4c0,0,0,0,0,0c0,0,0,0,0,0c-0.1,0.2-0.3,0.3-0.4,0.5
				c0,0,0,0,0,0c-0.1,0.2-0.2,0.4-0.3,0.6c0,0,0,0,0,0c0,0.2-0.1,0.5-0.1,0.7c0,0.5,0.1,0.8,0.3,1.3c0,0,0,0,0,0c0,0,0,0,0,0
				c0,0,0,0,0,0c0.1,0.2,0.3,0.3,0.4,0.5c0,0,0,0,0,0c0.2,0.1,0.3,0.3,0.5,0.4c0,0,0,0,0,0c0,0,0,0,0,0c0,0,0,0,0,0
				C48.6,42,48.8,42.1,49.1,42.1C49,42.1,49.1,42.1,49.1,42.1c0.3,0.1,0.7,0.1,1,0c0.3,0,0.6-0.1,0.9-0.3c0.3-0.2,0.5-0.4,0.7-0.6
				c0.2-0.2,0.4-0.5,0.4-0.9c0-0.2,0.1-0.4,0.1-0.7c0-0.5-0.1-0.9-0.3-1.3c-0.1-0.2-0.3-0.3-0.4-0.5c-0.3-0.3-0.7-0.5-1.1-0.6
				c0,0,0,0,0,0c0.2,0.1,0.4,0.2,0.6,0.3c0,0,0,0,0,0c0.2,0.1,0.3,0.3,0.5,0.4c0,0,0,0,0,0c0.1,0.2,0.3,0.3,0.4,0.5c0,0,0,0,0,0
				c0.1,0.2,0.2,0.4,0.3,0.6c0,0,0,0,0,0c0,0.2,0.1,0.4,0.1,0.7c0,0,0,0,0,0c0,0.2-0.1,0.4-0.1,0.7c0,0,0,0,0,0
				c-0.1,0.2-0.2,0.4-0.3,0.6c0,0,0,0,0,0c-0.1,0.2-0.3,0.3-0.4,0.5c0,0,0,0,0,0c-0.2,0.1-0.3,0.3-0.5,0.4c0,0,0,0,0,0
				c-0.2,0.1-0.4,0.2-0.6,0.3c0,0,0,0,0,0C50.2,42,50,42,49.8,42c0,0,0,0,0,0c-0.2,0-0.4-0.1-0.7-0.1c0,0,0,0,0,0
				c-0.2-0.1-0.4-0.2-0.6-0.3c0,0,0,0,0,0c-0.2-0.1-0.3-0.3-0.5-0.4c0,0,0,0,0,0c-0.1-0.2-0.3-0.3-0.4-0.5c0,0,0,0,0,0
				c-0.1-0.2-0.2-0.4-0.3-0.6c0,0,0,0,0,0c0-0.2-0.1-0.4-0.1-0.7c0,0,0,0,0,0c0-0.2,0.1-0.4,0.1-0.7c0,0,0,0,0,0
				c0.1-0.2,0.2-0.4,0.3-0.6c0,0,0,0,0,0c0.1-0.2,0.3-0.3,0.4-0.5c0,0,0,0,0,0c0.2-0.1,0.3-0.3,0.5-0.4c0,0,0,0,0,0
				c0.2-0.1,0.4-0.2,0.6-0.3c0,0,0,0,0,0c0.2,0,0.4-0.1,0.7-0.1c0,0,0,0,0,0c0.2,0,0.4,0.1,0.7,0.1c0,0,0,0,0,0
				c-0.3-0.1-0.7-0.1-1,0c-0.3,0-0.6,0.1-0.9,0.3c-0.3,0.2-0.5,0.4-0.7,0.6c-0.2,0.2-0.4,0.5-0.4,0.9c0,0.2-0.1,0.4-0.1,0.7
				c0,0.5,0.1,0.9,0.3,1.3c0.1,0.2,0.3,0.3,0.4,0.5C48.3,41.8,48.6,42,49.1,42.1z"/>
		</g>
	</g>
	<g>
		<g>
			<path class="st2" d="M28.2,37.3C28.2,37.3,28.2,37.3,28.2,37.3C28.2,37.3,28.2,37.3,28.2,37.3c0,0-0.6-0.3-0.6-0.3c0,0,0,0,0,0
				c0,0,0,0,0,0c0,0-0.7-0.1-0.7-0.1c-0.4,0-0.9,0.1-1.3,0.3c0,0,0,0,0,0c0,0-0.5,0.4-0.5,0.4c0,0,0,0,0,0c0,0-0.4,0.5-0.4,0.5
				c0,0,0,0,0,0c0,0-0.3,0.6-0.3,0.6c0,0,0,0,0,0c0,0,0,0,0,0c0,0-0.1,0.7-0.1,0.7c0,0,0,0,0,0c0,0,0,0,0,0c0,0,0,0,0,0
				c0,0.1,0,0.2,0,0.3c0.1,0.4,0,0.4,0.3,0.9c0,0,0,0,0,0c0,0,0.4,0.5,0.4,0.5c0,0,0,0,0,0c0.3,0.3,0.7,0.6,1.1,0.7
				c0,0,0.7,0.1,0.7,0.1c0,0,0,0,0,0c0,0,0,0,0,0c0.6,0,0.5,0,1-0.2c0.4-0.2,0.4-0.1,0.8-0.5c0.2-0.1,0.3-0.3,0.4-0.5c0,0,0,0,0,0
				c0,0,0,0,0,0c0-0.1,0.1-0.2,0.1-0.3c0-0.1,0.1-0.2,0.1-0.3c0,0,0,0,0,0c0,0,0,0,0,0c0,0,0,0,0,0c0,0,0.1-0.7,0.1-0.7c0,0,0,0,0,0
				c0-0.5-0.1-0.8-0.3-1.3c0,0,0,0,0,0c0,0-0.4-0.5-0.4-0.5c0,0,0,0,0,0c-0.2-0.2-0.5-0.4-0.8-0.5c-0.3-0.2-0.6-0.2-1-0.2
				c-0.3,0-0.7,0.1-1,0.2c-0.3,0.1-0.6,0.3-0.8,0.5c-0.1,0.2-0.3,0.3-0.4,0.5c-0.2,0.4-0.3,0.8-0.3,1.3c0,0.2,0.1,0.4,0.1,0.7
				c0.1,0.4,0.3,0.8,0.6,1.1c0,0,0,0,0,0c-0.1-0.2-0.3-0.3-0.4-0.5c0,0,0,0,0,0c-0.1-0.2-0.2-0.4-0.3-0.6c0,0,0,0,0,0
				c0-0.2-0.1-0.4-0.1-0.7c0,0,0,0,0,0c0-0.2,0.1-0.4,0.1-0.7c0,0,0,0,0,0c0.1-0.2,0.2-0.4,0.3-0.6c0,0,0,0,0,0
				c0.1-0.2,0.3-0.3,0.4-0.5c0,0,0,0,0,0c0.2-0.1,0.3-0.3,0.5-0.4c0,0,0,0,0,0c0.2-0.1,0.4-0.2,0.6-0.3c0,0,0,0,0,0
				c0.2,0,0.4-0.1,0.7-0.1c0,0,0,0,0,0c0.2,0,0.4,0.1,0.7,0.1c0,0,0,0,0,0C27.8,37.2,28,37.3,28.2,37.3
				C28.1,37.4,28.1,37.4,28.2,37.3c0.1,0.2,0.3,0.3,0.4,0.5c0,0,0,0,0,0c0.1,0.2,0.3,0.3,0.4,0.5c0,0,0,0,0,0
				c0.1,0.2,0.2,0.4,0.3,0.6c0,0,0,0,0,0c0,0.2,0.1,0.4,0.1,0.7c0,0,0,0,0,0c0,0.2-0.1,0.4-0.1,0.7c0,0,0,0,0,0
				c-0.1,0.2-0.2,0.4-0.3,0.6c0,0,0,0,0,0c-0.1,0.2-0.3,0.3-0.4,0.5c0,0,0,0,0,0c-0.2,0.1-0.3,0.3-0.5,0.4c0,0,0,0,0,0
				c-0.2,0.1-0.4,0.2-0.6,0.3c0,0,0,0,0,0c-0.2,0-0.4,0.1-0.7,0.1c0,0,0,0,0,0c-0.2,0-0.4-0.1-0.7-0.1c0,0,0,0,0,0
				c-0.2-0.1-0.4-0.2-0.6-0.3c0,0,0,0,0,0c0.3,0.2,0.6,0.3,0.9,0.3c0.3,0.1,0.7,0.1,1,0c0.3-0.1,0.6-0.2,0.9-0.4
				c0.3-0.2,0.5-0.4,0.6-0.7c0.1-0.2,0.2-0.4,0.3-0.6c0.1-0.4,0.1-0.9,0-1.3c-0.1-0.2-0.2-0.4-0.3-0.6
				C28.9,37.8,28.6,37.5,28.2,37.3z"/>
		</g>
	</g>
</g>
</svg>
